<svg xmlns="http://www.w3.org/2000/svg" viewBox="0 0 240 160" role="img" aria-label="The Hong Kong Polytechnic University logo">
  <rect width="240" height="160" rx="12" fill="#ffffff"/>
  <g fill="#b51235">
    <path d="M118 24c16 0 30 8 38 21l17 28 24-38c5-8 17-10 25-5 8 5 10 17 5 25l-37 58c-4 6-11 10-18 10-8 0-15-4-19-11l-29-48c-2-3-5-5-9-5h-18c-9 0-17-8-17-17s8-18 17-18h21z"/>
    <path d="M122 136c-16 0-30-8-38-21L67 87l-24 38c-5 8-17 10-25 5-8-5-10-17-5-25l37-58c4-6 11-10 18-10 8 0 15 4 19 11l29 48c2 3 5 5 9 5h18c9 0 17 8 17 17s-8 18-17 18h-21z"/>
    <path d="M44 78c0-16 8-30 21-38l28-17-38-24c-8-5-10-17-5-25 5-8 17-10 25-5l58 37c6 4 10 11 10 18 0 8-4 15-11 19L84 72c-3 2-5 5-5 9v18c0 9-8 17-17 17s-18-8-18-17V78z" transform="translate(0 18)"/>
    <path d="M196 82c0 16-8 30-21 38l-28 17 38 24c8 5 10 17 5 25-5 8-17 10-25 5l-58-37c-6-4-10-11-10-18 0-8 4-15 11-19l48-29c3-2 5-5 5-9V61c0-9 8-17 17-17s18 8 18 17v21z" transform="translate(0 -18)"/>
  </g>
</svg>
